<!-- Generator: Adobe Illustrator 22.1.0, SVG Export Plug-In  -->
<svg version="1.1"
     xmlns="http://www.w3.org/2000/svg" xmlns:xlink="http://www.w3.org/1999/xlink" xmlns:a="http://ns.adobe.com/AdobeSVGViewerExtensions/3.0/"
     x="0px" y="0px" width="30px" height="30px" viewBox="0 0 30 30" style="enable-background:new 0 0 30 30;" xml:space="preserve">
<defs>
</defs>
    <path d="M0,15c0,8.3,6.7,15,15,15c8.3,0,15-6.7,15-15S23.3,0,15,0C6.7,0,0,6.7,0,15z M15,4.1C21,4.1,25.9,9,25.9,15
    c0,2.3-0.7,4.4-1.9,6.1L8.9,6C10.6,4.8,12.7,4.1,15,4.1z M21.1,24c-1.7,1.2-3.8,1.9-6.1,1.9C9,25.9,4.1,21,4.1,15
    c0-2.3,0.7-4.4,1.9-6.1L21.1,24z"/>
</svg>
