<?xml version="1.0" encoding="UTF-8"?>
<!-- Generator: Adobe Illustrator 24.2.0, SVG Export Plug-In . SVG Version: 6.00 Build 0)  -->
<svg version="1.1" id="Слой_1" xmlns="http://www.w3.org/2000/svg" xmlns:xlink="http://www.w3.org/1999/xlink" x="0px" y="0px" width="513.7px" height="354px" viewBox="0 0 513.7 354" style="enable-background:new 0 0 513.7 354;" xml:space="preserve">
<style type="text/css">
	.st0{fill-rule:evenodd;clip-rule:evenodd;fill:#E99114;}
	.st1{fill-rule:evenodd;clip-rule:evenodd;fill:#FFFFFF;}
	.st2{fill-rule:evenodd;clip-rule:evenodd;fill:#909090;}
	.st3{fill:#C2C0C0;}
	.st4{fill-rule:evenodd;clip-rule:evenodd;fill:#67B457;}
	.st5{fill-rule:evenodd;clip-rule:evenodd;fill:#E2071D;}
	.st6{fill-rule:evenodd;clip-rule:evenodd;fill:#FF7F0D;}
	.st7{fill-rule:evenodd;clip-rule:evenodd;fill:#347EA3;}
	.st8{fill-rule:evenodd;clip-rule:evenodd;fill:#C1C1C1;}
	.st9{fill-rule:evenodd;clip-rule:evenodd;fill:#999999;}
	.st10{fill-rule:evenodd;clip-rule:evenodd;fill:#D0DBE5;}
	.st11{fill-rule:evenodd;clip-rule:evenodd;fill:#9BB2C3;}
	.st12{fill-rule:evenodd;clip-rule:evenodd;fill:#828487;}
	.st13{fill-rule:evenodd;clip-rule:evenodd;fill:#C5C7CB;}
	.st14{fill-rule:evenodd;clip-rule:evenodd;fill:#75797E;}
	.st15{fill-rule:evenodd;clip-rule:evenodd;fill:#CFCFCF;}
	.st16{fill-rule:evenodd;clip-rule:evenodd;fill:#D9E0E6;}
	.st17{fill-rule:evenodd;clip-rule:evenodd;fill:#8AA0AD;}
	.st18{fill:#FFFFFF;}
	.st19{fill-rule:evenodd;clip-rule:evenodd;fill:#ABABAB;}
	.st20{fill:#ABABAB;}
	.st21{fill-rule:evenodd;clip-rule:evenodd;fill:#755991;}
	.st22{fill:#9BB2C3;}
	.st23{fill:#9BB2C3;stroke:#9BB2C3;stroke-width:0.492;stroke-miterlimit:10;}
	.st24{fill:none;stroke:#9BB2C3;stroke-width:1.25;stroke-miterlimit:10;}
	.st25{fill:none;stroke:#9BB2C3;stroke-width:1.272;stroke-miterlimit:10;}
	.st26{fill:#D0DBE5;}
	.st27{fill:#E99114;}
	.st28{fill-rule:evenodd;clip-rule:evenodd;fill:#828282;}
</style>
<g>
	<path shape-rendering="geometricPrecision" class="st0" d="M34.4,3.2c-1.7,0-3.1,1.2-3.9,2.1c-0.8-0.9-2.2-2.1-3.9-2.1   c-2.7,0-4.6,2-4.6,5c0,4.8,6.6,9.7,7.9,10.6l0.5,0.4l0.6-0.3c0.8-0.6,7.9-5.7,7.9-10.7C38.9,5.2,37.1,3.2,34.4,3.2z M37.7,8.1   c0,4.1-6.1,8.7-7.2,9.5c-1.1-0.8-7.2-5.4-7.2-9.5c0-2.3,1.3-3.7,3.3-3.7c2.1,0,3.7,2.5,3.7,2.5l0.3,0.4L30.7,7c0,0,1.6-2.5,3.7-2.5   C36.4,4.5,37.7,5.9,37.7,8.1z"/>
</g>
<g>
	<path shape-rendering="geometricPrecision" class="st0" d="M39.6,23.2H23.4c-0.8,0-1.4,0.6-1.4,1.4v12.1c0,0.8,0.6,1.4,1.4,1.4h9.4   l3.6,2.8c0.2,0.1,0.4,0.2,0.6,0.2c0.2,0,0.3,0,0.5-0.1c0.4-0.2,0.6-0.5,0.6-1v-2h1.5c0.8,0,1.4-0.6,1.4-1.4V24.7   C41,23.9,40.3,23.2,39.6,23.2z M36.7,37.6v1.9l-3.1-2.4c-0.2-0.2-0.5-0.3-0.9-0.3h-9.3c0,0-0.1,0-0.1-0.1v-12c0,0,0-0.1,0.1-0.1   h16.2c0,0,0.1,0,0.1,0.1v12.1c0,0,0,0.1-0.1,0.1h-2.1C37.1,36.8,36.7,37.2,36.7,37.6z"/>
</g>
<g>
	<path shape-rendering="geometricPrecision" class="st0" d="M43.6,52.5l-6.7-6.9c-0.1-0.1-0.3-0.2-0.5-0.2c-0.4,0-0.7,0.3-0.7,0.7   v3.7c-6.5,0.1-13.2,4.9-13.7,13.8c0,0.2,0.1,0.4,0.2,0.5s0.3,0.2,0.5,0.2s0.4-0.1,0.6-0.3c3.1-4.8,8.7-7.5,12.4-7.6v3.7   c0,0.4,0.3,0.7,0.7,0.7c0.2,0,0.3-0.1,0.5-0.2l6.7-6.6C44,53.7,44,53,43.6,52.5z M35.9,55.1c-3.5,0-8.7,2.1-12.2,6.1   c1.4-5.9,6.3-10,12.2-10H37v-3.4l5.4,5.5L37,58.6v-3.5H35.9z"/>
</g>
<g>
	<path shape-rendering="geometricPrecision" class="st1" d="M15.5,138.4l-6.1,5.5l-0.1-0.1l-0.1,0.1L3,138.4l0.4-0.5L3,137.5   l0.7-0.7l5.5,4.9l5.5-4.9l0.7,0.7l-0.4,0.4L15.5,138.4z"/>
</g>
<g>
	<path shape-rendering="geometricPrecision" class="st0" d="M61,18.8l-0.6,0.3L60,18.8c-1.4-0.9-8-5.8-8-10.6c0-3,1.8-5,4.6-5   c1.7,0,3.1,1.2,3.9,2.1c0.8-0.9,2.2-2.1,3.9-2.1c2.7,0,4.6,2,4.6,5C69,13.2,61.9,18.3,61,18.8z"/>
</g>
<g>
	<path shape-rendering="geometricPrecision" class="st2" d="M107,67H89c-0.6,0-1-0.4-1-1s0.4-1,1-1h18c0.6,0,1,0.4,1,1   S107.6,67,107,67z"/>
</g>
<path shape-rendering="geometricPrecision" class="st3" d="M7.1,174.2c0,1.4-1.2,2.6-2.6,2.6s-2.6-1.2-2.6-2.6s1.2-2.6,2.6-2.6  S7.1,172.7,7.1,174.2z M14,171.6c-1.4,0-2.6,1.2-2.6,2.6s1.2,2.6,2.6,2.6s2.6-1.2,2.6-2.6C16.6,172.7,15.4,171.6,14,171.6z   M23.5,171.6c-1.4,0-2.6,1.2-2.6,2.6s1.2,2.6,2.6,2.6s2.6-1.2,2.6-2.6C26.1,172.7,24.9,171.6,23.5,171.6z"/>
<g>
	<path shape-rendering="geometricPrecision" class="st4" d="M179.3,28.6c-7.2,0-13-5.8-13-13s5.8-13,13-13s13,5.8,13,13   S186.4,28.6,179.3,28.6z M179.3,4.1c-6.3,0-11.5,5.1-11.5,11.5S172.9,27,179.3,27c6.3,0,11.5-5.1,11.5-11.5S185.6,4.1,179.3,4.1z    M179.2,19.2c-0.1,0.2-0.3,0.2-0.6,0.2c-0.2,0-0.4-0.1-0.5-0.2l-3.4-3.1c-0.2-0.1-0.2-0.3-0.3-0.5c0-0.2,0.1-0.4,0.2-0.6   c0.1-0.2,0.3-0.2,0.5-0.3c0.2,0,0.4,0.1,0.6,0.2l2.9,2.6l5.2-5.6c0.3-0.3,0.8-0.3,1.1,0s0.3,0.8,0,1.1L179.2,19.2z"/>
</g>
<path shape-rendering="geometricPrecision" class="st5" d="M179.3,65.1c-7.2,0-13-5.8-13-13s5.8-13,13-13s13,5.8,13,13  S186.5,65.1,179.3,65.1z M179.3,40.6c-6.3,0-11.5,5.1-11.5,11.5s5.1,11.5,11.5,11.5s11.5-5.1,11.5-11.5S185.6,40.6,179.3,40.6z   M183.9,56.7c-0.3,0.3-0.8,0.3-1.1,0l-3.5-3.5l-3.5,3.5c-0.1,0.1-0.3,0.2-0.5,0.2s-0.4-0.1-0.5-0.2c-0.3-0.3-0.3-0.8,0-1.1l3.5-3.5  l-3.5-3.5c-0.3-0.3-0.3-0.8,0-1.1s0.8-0.3,1.1,0l3.4,3.5l3.5-3.5c0.3-0.3,0.8-0.3,1.1,0s0.3,0.8,0,1.1l-3.5,3.5l3.5,3.5  C184.2,55.9,184.2,56.4,183.9,56.7z"/>
<g>
	<path shape-rendering="geometricPrecision" class="st6" d="M179.3,99.8c-7.2,0-13-5.8-13-13s5.8-13,13-13s13,5.8,13,13   C192.4,94,186.5,99.8,179.3,99.8z M179.3,75.5c-6.3,0-11.3,5.1-11.3,11.3c0,6.3,5.1,11.3,11.3,11.3s11.4-5.1,11.4-11.3   S185.6,75.5,179.3,75.5z M178.5,90.1h1.7v1.7h-1.7V90.1z M178.5,81.9h1.7v6.7h-1.7V81.9z"/>
</g>
<g>
	<path shape-rendering="geometricPrecision" class="st7" d="M179.3,135.2c-7.2,0-13-5.8-13-13s5.8-13,13-13s13,5.8,13,13   S186.5,135.2,179.3,135.2z M179.3,110.8c-6.3,0-11.3,5.1-11.3,11.3c0,6.2,5.1,11.3,11.3,11.3c6.3,0,11.4-5.1,11.4-11.3   S185.6,110.8,179.3,110.8z M178.5,120.3h1.7v6.7h-1.7V120.3z M178.5,117.3h1.7v1.7h-1.7V117.3z"/>
</g>
<g>
	<path shape-rendering="geometricPrecision" class="st0" d="M21.6,201.9l-2.7,2.6c-0.1,0.1-0.2,0.3-0.2,0.4v2.7   c0,0.3-0.3,0.6-0.6,0.6h-2.7c-0.2,0-0.3,0.1-0.4,0.2l-2.6,2.7c-0.1,0.1-0.3,0.2-0.4,0.2s-0.3-0.1-0.4-0.2L9,208.4   c-0.1-0.1-0.3-0.2-0.4-0.2H5.9c-0.3,0-0.6-0.3-0.6-0.6v-2.7c0-0.2-0.1-0.3-0.2-0.4l-2.7-2.6c-0.2-0.2-0.2-0.6,0-0.8l2.7-2.6   c0.1-0.1,0.2-0.3,0.2-0.4v-2.7c0-0.3,0.3-0.6,0.6-0.6h2.7c0.2,0,0.3-0.1,0.4-0.2l2.6-2.7c0.2-0.2,0.6-0.2,0.8,0l2.6,2.7   c0.1,0.1,0.3,0.2,0.4,0.2h2.7c0.3,0,0.6,0.3,0.6,0.6v2.7c0,0.2,0.1,0.3,0.2,0.4l2.7,2.6C21.8,201.3,21.8,201.7,21.6,201.9z    M18.1,199.4c-0.3-0.3-0.5-0.8-0.5-1.3v-2.2h-2.2c-0.5,0-0.9-0.2-1.3-0.5l-2.1-2.3l-2.1,2.3c-0.3,0.3-0.8,0.5-1.3,0.5H6.4v2.2   c0,0.5-0.2,0.9-0.5,1.3l-2.3,2.2l2.3,2.2c0.3,0.3,0.5,0.8,0.5,1.3v2.2h2.2c0.5,0,0.9,0.2,1.3,0.5l2.1,2.3l2.1-2.3   c0.3-0.3,0.8-0.5,1.3-0.5h2.2v-2.2c0-0.5,0.2-0.9,0.5-1.3l0,0l2.3-2.2L18.1,199.4z M12,204.4c-0.1,0.1-0.3,0.2-0.4,0.2   c-0.1,0-0.3,0-0.4-0.1l-2.2-2c-0.1-0.1-0.2-0.2-0.2-0.4s0-0.3,0.1-0.4c0.2-0.2,0.6-0.3,0.8-0.1l1.9,1.6l3.5-3.5   c0.2-0.2,0.6-0.2,0.8,0c0.2,0.2,0.2,0.6,0,0.8L12,204.4z"/>
</g>
<g>
	<path shape-rendering="geometricPrecision" class="st8" d="M46.8,201.9l-2.7,2.6c-0.1,0.1-0.2,0.3-0.2,0.4v2.7   c0,0.3-0.3,0.6-0.6,0.6h-2.7c-0.2,0-0.3,0.1-0.4,0.2l-2.6,2.7c-0.1,0.1-0.3,0.2-0.4,0.2c-0.2,0-0.3-0.1-0.4-0.2l-2.6-2.7   c-0.1-0.1-0.3-0.2-0.4-0.2h-2.7c-0.3,0-0.6-0.3-0.6-0.6v-2.7c0-0.2-0.1-0.3-0.2-0.4l-2.7-2.6c-0.2-0.2-0.2-0.6,0-0.8l2.7-2.6   c0.1-0.1,0.2-0.3,0.2-0.4v-2.7c0-0.3,0.3-0.6,0.6-0.6h2.7c0.2,0,0.3-0.1,0.4-0.2l2.6-2.7c0.2-0.2,0.6-0.2,0.8,0l2.6,2.7   c0.1,0.1,0.3,0.2,0.4,0.2h2.7c0.3,0,0.6,0.3,0.6,0.6v2.7c0,0.2,0.1,0.3,0.2,0.4l2.7,2.6C47.1,201.3,47.1,201.7,46.8,201.9z    M43.3,199.4c-0.3-0.3-0.5-0.8-0.5-1.3v-2.2h-2.2c-0.5,0-0.9-0.2-1.3-0.5l-2.1-2.3l-2.1,2.3c-0.3,0.3-0.8,0.5-1.3,0.5h-2.2v2.2   c0,0.5-0.2,0.9-0.5,1.3l-2.3,2.2l2.3,2.2c0.3,0.3,0.5,0.8,0.5,1.3v2.2h2.2c0.5,0,0.9,0.2,1.3,0.5l2.1,2.3l2.1-2.3   c0.3-0.3,0.8-0.5,1.3-0.5h2.2v-2.2c0-0.5,0.2-0.9,0.5-1.3l0,0l2.3-2.2L43.3,199.4z M40.6,202.1h-2.8v2.8c0,0.3-0.3,0.6-0.6,0.6   s-0.6-0.3-0.6-0.6v-2.8h-2.8c-0.3,0-0.6-0.3-0.6-0.6s0.3-0.6,0.6-0.6h2.8v-2.8c0-0.3,0.3-0.6,0.6-0.6s0.6,0.3,0.6,0.6v2.8h2.8   c0.3,0,0.6,0.3,0.6,0.6C41.2,201.8,40.9,202.1,40.6,202.1z"/>
</g>
<g>
	<path shape-rendering="geometricPrecision" class="st1" d="M18.9,239c0.4,0.4,0.4,1.1,0,1.5c-0.2,0.2-0.5,0.3-0.7,0.3   c-0.3,0-0.5-0.1-0.7-0.3l-5.6-5.6l-5.6,5.6c-0.2,0.2-0.5,0.3-0.7,0.3c-0.3,0-0.5-0.1-0.7-0.3c-0.4-0.4-0.4-1.1,0-1.5l5.6-5.6   l-5.6-5.6c-0.4-0.4-0.4-1.1,0-1.5s1.1-0.4,1.5,0l5.6,5.6l5.6-5.6c0.4-0.4,1.1-0.4,1.5,0s0.4,1.1,0,1.5l-5.6,5.6L18.9,239z"/>
</g>
<g>
	<path shape-rendering="geometricPrecision" class="st9" d="M44.1,239.3c0.4,0.4,0.4,1.1,0,1.5c-0.2,0.2-0.5,0.3-0.7,0.3   c-0.3,0-0.5-0.1-0.7-0.3l-5.6-5.6l-5.6,5.6c-0.2,0.2-0.5,0.3-0.7,0.3c-0.3,0-0.5-0.1-0.7-0.3c-0.4-0.4-0.4-1.1,0-1.5l5.6-5.6   l-5.6-5.6c-0.4-0.4-0.4-1.1,0-1.5s1.1-0.4,1.5,0l5.6,5.6l5.6-5.6c0.4-0.4,1.1-0.4,1.5,0s0.4,1.1,0,1.5l-5.6,5.6L44.1,239.3z"/>
</g>
<g>
	<path shape-rendering="geometricPrecision" class="st1" d="M21.8,264.2c0.6,0,1.1,0.5,1.1,1.1c0,0.3-0.1,0.6-0.3,0.7   c-0.2,0.2-0.4,0.3-0.7,0.3H14v7.9c0,0.3-0.1,0.6-0.3,0.7c-0.2,0.2-0.4,0.3-0.7,0.3c-0.6,0-1.1-0.5-1.1-1.1v-7.9H4   c-0.6,0-1.1-0.5-1.1-1.1S3.4,264,4,264h7.9v-7.9c0-0.6,0.5-1.1,1.1-1.1s1.1,0.5,1.1,1.1v7.9L21.8,264.2z"/>
</g>
<g>
	<path shape-rendering="geometricPrecision" class="st10" d="M238.2,11.6l-20.4-8.7c-0.5-0.2-1,0-1.3,0.3c-0.2,0.3-0.3,0.6-0.2,1   l1.9,7.3l9.6,1.6c0.1,0,0.1,0.1,0.1,0.1s0,0.1-0.1,0.1l-9.6,1.6l-2,7.3c-0.1,0.3,0,0.7,0.2,1s0.5,0.4,0.9,0.4c0.2,0,0.3,0,0.4-0.1   l20.4-8.8c0.6-0.3,1-0.8,1-1.5C239.2,12.5,238.8,11.9,238.2,11.6z"/>
</g>
<g>
	<path shape-rendering="geometricPrecision" class="st11" d="M277.5,11.6l-20.3-8.7c-0.5-0.2-1,0-1.3,0.3c-0.2,0.3-0.3,0.6-0.2,1   l1.9,7.3l9.6,1.6c0.1,0,0.1,0.1,0.1,0.1s0,0.1-0.1,0.1l-9.6,1.6l-2,7.3c-0.1,0.3,0,0.7,0.2,1s0.5,0.4,0.9,0.4c0.2,0,0.3,0,0.4-0.1   l20.4-8.8c0.6-0.3,1-0.8,1-1.5C278.5,12.5,278.1,11.9,277.5,11.6z"/>
</g>
<g>
	<path shape-rendering="geometricPrecision" class="st12" d="M228.6,45.6l-5.9,5.9c-1.2,1.2-3.3,1.3-4.5,0c-0.6-0.6-0.9-1.4-0.9-2.3   c0-0.9,0.3-1.7,0.9-2.3l7.2-7.3c0.8-0.8,2.1-0.8,2.9,0c0.4,0.4,0.6,0.9,0.6,1.5s-0.2,1.1-0.6,1.5l-6.7,6.7c-0.4,0.4-0.9,0.4-1.3,0   c-0.2-0.2-0.3-0.4-0.3-0.7c0-0.2,0.1-0.5,0.3-0.7l6.4-6.4c0.1-0.1,0.2-0.3,0.2-0.4c0-0.2-0.1-0.3-0.2-0.4c-0.2-0.2-0.6-0.2-0.8,0   l-6.4,6.5c-0.4,0.4-0.6,0.9-0.6,1.5s0.2,1.1,0.6,1.5c0.8,0.8,2.2,0.8,3,0l6.7-6.7c0.6-0.6,1-1.4,1-2.3c0-0.9-0.3-1.7-1-2.3   c-1.3-1.3-3.3-1.3-4.6,0l-7.2,7.3c-0.8,0.8-1.3,1.9-1.3,3.1c0,1.2,0.5,2.3,1.3,3.1c0.9,0.9,2,1.3,3.1,1.3s2.2-0.4,3.1-1.3l5.9-5.9   c0.1-0.1,0.2-0.3,0.2-0.4c0-0.2-0.1-0.3-0.2-0.4C229.1,45.4,228.9,45.4,228.6,45.6z"/>
</g>
<path shape-rendering="geometricPrecision" class="st13" d="M217.6,64.5c0.8,0,1.5,0.7,1.5,1.5s-0.7,1.5-1.5,1.5s-1.5-0.7-1.5-1.5  S216.8,64.5,217.6,64.5z"/>
<g>
	<path shape-rendering="geometricPrecision" class="st14" d="M224.6,92.1c-4.7,0-8.5-3.8-8.5-8.5s3.8-8.5,8.5-8.5s8.5,3.8,8.5,8.5   C233.1,88.3,229.3,92.1,224.6,92.1z M224.6,76.3c-4,0-7.3,3.3-7.3,7.3s3.3,7.3,7.3,7.3s7.3-3.3,7.3-7.3   C231.9,79.6,228.6,76.3,224.6,76.3z M226.9,83.5c-0.5,0-0.9-0.4-0.9-0.9s0.4-0.9,0.9-0.9s0.9,0.4,0.9,0.9   C227.8,83.1,227.4,83.5,226.9,83.5z M226.6,85.4L226.6,85.4L226.6,85.4L226.6,85.4c0.3,0.3,0.3,0.7,0,0.9c-0.5,0.5-1.3,0.8-2.1,0.8   s-1.6-0.3-2.1-0.8c-0.2-0.2-0.2-0.6,0-0.9c0.2-0.2,0.6-0.2,0.9,0c0.6,0.6,1.9,0.6,2.4,0C226,85.2,226.4,85.2,226.6,85.4z    M222.3,83.5c-0.5,0-0.9-0.4-0.9-0.9s0.4-0.9,0.9-0.9s0.9,0.4,0.9,0.9S222.8,83.5,222.3,83.5z"/>
</g>
<g>
	<path shape-rendering="geometricPrecision" class="st15" d="M221.9,111.6l-0.4,0.2l-0.3-0.2c-0.9-0.6-5.2-3.7-5.2-6.7   c0-1.9,1.2-3.2,3-3.2c1.1,0,2,0.8,2.5,1.3c0.5-0.6,1.4-1.3,2.5-1.3c1.7,0,3,1.3,3,3.2C227.1,108.1,222.5,111.3,221.9,111.6z"/>
</g>
<g>
	<path shape-rendering="geometricPrecision" class="st0" d="M244.5,111.6l-0.4,0.2l-0.3-0.2c-0.9-0.6-5.2-3.7-5.2-6.7   c0-1.9,1.2-3.2,3-3.2c1.1,0,2,0.8,2.5,1.3c0.5-0.6,1.4-1.3,2.5-1.3c1.7,0,3,1.3,3,3.2C249.6,108.1,245,111.3,244.5,111.6z"/>
</g>
<g>
	<path shape-rendering="geometricPrecision" class="st11" d="M227.6,143.2c-6.3,0-11.5-6-11.5-7c0-1.1,5.2-7,11.5-7s11.5,6,11.5,7   S233.9,143.2,227.6,143.2z M227.6,130.9c-4.8,0-8.7,4-9.6,5.3c0.9,1.2,4.7,5.3,9.6,5.3c4.7,0,8.7-4,9.6-5.3   C236.3,134.9,232.3,130.9,227.6,130.9z M227.6,139.7c-2,0-3.5-1.6-3.5-3.5s1.6-3.5,3.5-3.5c2,0,3.5,1.6,3.5,3.5   C231.1,138.1,229.5,139.7,227.6,139.7z M227.6,134.4c-1,0-1.8,0.8-1.8,1.8s0.8,1.8,1.8,1.8s1.8-0.8,1.8-1.8   C229.4,135.2,228.6,134.4,227.6,134.4z"/>
</g>
<path shape-rendering="geometricPrecision" class="st16" d="M272,131.1l-0.3-0.2l3.2-3.2c0.4-0.4,0.4-0.9,0-1.3s-0.9-0.4-1.3,0  L269,131l1-1l-0.7-0.3c-1.5-0.6-2.9-0.8-4.3-0.8c-6.6,0-12,6.2-12,7.2c0,0.8,2.2,3.3,5,5.1l0.3,0.2l-3.2,3.2c-0.4,0.4-0.4,0.9,0,1.3  c0.2,0.2,0.4,0.3,0.7,0.3c0.3,0,0.5-0.1,0.7-0.3l3.6-3.6l0.7,0.3c1.5,0.6,2.9,0.8,4.3,0.8c6.6,0,12-6.2,12-7.3  C277,135.4,274.9,132.9,272,131.1z M266.8,136c0,0.1,0,0.1,0,0.2c0,1-0.8,1.8-1.8,1.8c-0.1,0-0.1,0-0.3,0h-0.2l-0.8,0.8l3.2-3.2  l-0.2,0.2L266.8,136z M263.1,139.4l0.7,0.2c2.6,0.9,4.9-1,4.9-3.4c0-0.4-0.1-0.8-0.2-1.2l-0.2-0.7l2.3-2.3l-0.2,0.2l0.5,0.3  c2.1,1.3,3.7,2.9,4.2,3.6c-0.9,1.3-5.1,5.4-10,5.4c-1.1,0-2.1-0.2-3.3-0.6l-0.3-0.1L263.1,139.4z M263.2,136.4c0-0.1,0-0.1,0-0.2  c0-1,0.8-1.8,1.8-1.8c0.1,0,0.1,0,0.3,0h0.2l-2.4,2.4l0.2-0.2L263.2,136.4z M261.3,136.2c0,0.4,0.1,0.8,0.2,1.2l0.2,0.7l0.3-0.3  l-2.4,2.3l-0.5-0.3c-2.1-1.3-3.6-2.9-4.2-3.6c1-1.3,4.9-5.4,10-5.4c1,0,2.1,0.2,3.3,0.6l0.3,0.1l-1.6,1.6l-0.7-0.2  C263.7,131.9,261.3,133.8,261.3,136.2z"/>
<g>
	<path shape-rendering="geometricPrecision" class="st17" d="M67.4,237.1c0.3,0.3,0.3,0.7,0,0.9c-0.1,0.1-0.3,0.2-0.5,0.2   s-0.3-0.1-0.5-0.2l-3.4-3.4l-3.4,3.4c-0.1,0.1-0.3,0.2-0.5,0.2s-0.3-0.1-0.5-0.2c-0.3-0.3-0.3-0.7,0-0.9l3.4-3.4l-3.4-3.4   c-0.3-0.3-0.3-0.7,0-0.9c0.3-0.3,0.7-0.3,0.9,0l3.4,3.4l3.4-3.4c0.3-0.3,0.7-0.3,0.9,0c0.3,0.3,0.3,0.7,0,0.9l-3.4,3.4L67.4,237.1z   "/>
</g>
<g>
	<path shape-rendering="geometricPrecision" class="st0" d="M223,171.9c-0.2,0.3-0.6,0.5-1,0.5s-0.8-0.2-1-0.5   c-1.3-1.6-5-7.1-5-10.6c0-3.2,2.7-5.9,6-5.9s6,2.6,6,5.9C228,164.8,224.3,170.3,223,171.9z M222,156.6c-2.6,0-4.8,2.1-4.8,4.7   c0,3,3.2,8,4.7,9.9c0,0,0,0,0.1,0l0,0l0,0c1.5-1.9,4.7-6.9,4.7-9.9C226.8,158.7,224.6,156.6,222,156.6z M219.4,160.6   c0-1.4,1.2-2.6,2.6-2.6c1.4,0,2.6,1.1,2.6,2.6c0,1.4-1.2,2.6-2.6,2.6C220.5,163.2,219.4,162,219.4,160.6z M223.4,160.6   c0-0.8-0.6-1.4-1.4-1.4c-0.8,0-1.4,0.6-1.4,1.4c0,0.8,0.6,1.4,1.4,1.4C222.8,162,223.4,161.4,223.4,160.6z"/>
</g>
<g>
	<path shape-rendering="geometricPrecision" class="st11" d="M232.6,184.8h-0.8l-0.7,14.3c0,0.9-0.8,1.5-1.6,1.5H220   c-0.9,0-1.6-0.7-1.6-1.5l-0.7-14.4h-0.8c-0.5,0-0.8-0.4-0.8-0.8c0-0.5,0.4-0.8,0.8-0.8h3.4l0.3-1.2c0.2-0.7,0.8-1.2,1.6-1.2h5.3   c0.7,0,1.4,0.5,1.6,1.2l0.3,1.2h3.4c0.5,0,0.8,0.4,0.8,0.8C233.5,184.4,233.1,184.8,232.6,184.8z M227.3,182.4h-5.2l-0.2,0.7h5.6   L227.3,182.4z M219.3,184.8L220,199h9.5l0.7-14.2H219.3z M227.9,194.3c0,0.2-0.1,0.4-0.2,0.6c-0.3,0.3-0.8,0.3-1.2,0l-1.8-1.8   l-1.8,1.8c-0.2,0.2-0.4,0.2-0.6,0.2c-0.2,0-0.4-0.1-0.6-0.2c-0.2-0.2-0.2-0.4-0.2-0.6c0-0.2,0.1-0.4,0.2-0.6l1.8-1.8l-1.8-1.8   c-0.2-0.2-0.2-0.4-0.2-0.6c0-0.2,0.1-0.4,0.2-0.6c0.3-0.3,0.8-0.3,1.2,0l1.8,1.8l1.8-1.8c0.2-0.2,0.4-0.2,0.6-0.2l0,0   c0.2,0,0.4,0.1,0.6,0.2c0.2,0.2,0.2,0.4,0.2,0.6c0,0.2-0.1,0.4-0.2,0.6l-1.8,1.8l1.8,1.8C227.8,193.9,227.9,194.1,227.9,194.3z"/>
</g>
<path shape-rendering="geometricPrecision" class="st18" d="M55.1,174.2c0,1.4-1.2,2.6-2.6,2.6c-1.4,0-2.6-1.2-2.6-2.6  s1.2-2.6,2.6-2.6C53.9,171.6,55.1,172.7,55.1,174.2z M62,171.6c-1.4,0-2.6,1.2-2.6,2.6s1.2,2.6,2.6,2.6s2.6-1.2,2.6-2.6  C64.6,172.7,63.4,171.6,62,171.6z M71.5,171.6c-1.4,0-2.6,1.2-2.6,2.6s1.2,2.6,2.6,2.6s2.6-1.2,2.6-2.6  C74.1,172.7,72.9,171.6,71.5,171.6z"/>
<g>
	<path shape-rendering="geometricPrecision" class="st19" d="M31.3,84.3c-5.1,0-9.3-4.9-9.3-5.7c0-0.9,4.2-5.7,9.3-5.7   s9.3,4.9,9.3,5.7S36.4,84.3,31.3,84.3z M31.3,74.3c-3.9,0-7.1,3.2-7.8,4.3c0.7,1,3.8,4.3,7.8,4.3c3.8,0,7.1-3.2,7.8-4.3   C38.4,77.5,35.1,74.3,31.3,74.3z M31.3,81.4c-1.6,0-2.8-1.3-2.8-2.8s1.3-2.8,2.8-2.8c1.6,0,2.8,1.3,2.8,2.8S32.8,81.4,31.3,81.4z    M31.3,77.1c-0.8,0-1.5,0.6-1.5,1.5s0.7,1.4,1.5,1.4s1.5-0.6,1.5-1.5C32.8,77.8,32.1,77.1,31.3,77.1z"/>
</g>
<g>
	<path class="st19" d="M18,20H2c-1.2,0-2-0.8-2-2V4c0-1.2,0.8-2,2-2h16c1.2,0,2,0.8,2,2v14C20,19.2,19.2,20,18,20z M18,5   c0-0.5-0.5-1-1-1H3C2.5,4,2,4.5,2,5v1h16V5z M18,8H2v9c0,0.5,0.5,1,1,1h14c0.5,0,1-0.5,1-1V8z M14,16H9.3H6c-0.6,0-1-0.4-1-1   s0.4-1,1-1h3.3H14c0.6,0,1,0.4,1,1S14.6,16,14,16z M14,12H9.3H6c-0.6,0-1-0.4-1-1s0.4-1,1-1h3.3H14c0.6,0,1,0.4,1,1S14.6,12,14,12z   "/>
</g>
<g>
	<path class="st19" d="M18,39h-4.7c-0.5,0-1,0.2-1.3,0.5L10,41l-2-1.5C7.7,39.2,7.2,39,6.7,39H2c-1.2,0-2-0.9-2-2V25   c0-1.2,0.8-2,2-2h16c1.2,0,2,0.8,2,2v12C20,38.1,19.1,39,18,39z M18,26c0-0.5-0.5-1-1-1H3c-0.5,0-1,0.5-1,1v10c0,0.5,0.5,1,1,1h4   c0.6,0,1.6,0.2,2,0.7l1,0.8l1-0.8c0.4-0.4,1.4-0.7,2-0.7h4c0.5,0,1-0.6,1-1V26z M15.1,30H10H4.9C4.4,30,4,29.6,4,29s0.4-1,0.9-1H10   h5.1c0.5,0,0.9,0.4,0.9,1S15.6,30,15.1,30z M7,32h3h3c0.6,0,1,0.4,1,1s-0.4,1-1,1h-3H7c-0.6,0-1-0.4-1-1S6.4,32,7,32z"/>
</g>
<g>
	<path class="st19" d="M18,108H2c-1.1,0-2-0.8-2-2V92c0-1.2,0.9-2,2-2h16c1.2,0,2,0.8,2,2v14C20.1,107.2,19.1,108,18,108z M18,93   c0-0.5-0.5-1-1-1H3c-0.5,0-1,0.5-1,1v12c0,0.4,0.6,1,1,1h14c0.5,0,1-0.6,1-1V93z"/>
</g>
<g>
	<path class="st19" d="M17,49h-3v-1v-1v-1c0-1.2-0.8-2-2-2h-2H6H4c-1.2,0-2,0.8-2,2v1.3V63v1c0,1,0.9,2,2,2h2h9h2c1.3,0,2-0.9,2-2   v-1.8V55v-1v-3C19,49.8,18.2,49,17,49z M12,48v2v4v10H6H5c-0.5,0-1-0.4-1-1v-2.5V60V47.5V47c0-0.5,0.5-1,1-1h1h4h1c0.5,0,1,0.5,1,1   V48z M17,60v2v1c0,0.5-0.5,1-1,1h-1h-1V53v-1v-1h2c0.5,0,1,0.5,1,1V60z"/>
	<path class="st19" d="M9.7,48H9.3l0,0H6.7l0,0H6.3c-0.5,0-0.8,0.4-0.8,1s0.4,1,0.8,1h3.3c0.5,0,0.8-0.4,0.8-1S10.1,48,9.7,48z"/>
	<path class="st19" d="M9.7,52H6.3c-0.5,0-0.8,0.4-0.8,1s0.4,1,0.8,1h3.3c0.5,0,0.8-0.4,0.8-1S10.1,52,9.7,52z"/>
	<path class="st19" d="M9.7,56H6.3c-0.5,0-0.8,0.4-0.8,1s0.4,1,0.8,1h3.3c0.5,0,0.8-0.4,0.8-1S10.1,56,9.7,56z"/>
	<path class="st19" d="M9.7,60H6.3c-0.5,0-0.8,0.4-0.8,1s0.4,1,0.8,1h3.3c0.5,0,0.8-0.4,0.8-1S10.1,60,9.7,60z"/>
</g>
<path class="st20" d="M14.7,80c1.1-1.2,1.8-2.7,1.8-4.5c0-3.6-2.9-6.5-6.5-6.5s-6.5,2.9-6.5,6.5c0,1.7,0.7,3.3,1.8,4.5  c-2.4,1.5-4.1,4-4.3,7h2c0.2-2.6,1.9-4.7,4.1-5.7C8,81.7,8.9,82,10,82s2-0.3,2.9-0.7c2.2,1,3.8,3.2,4.1,5.7h2  C18.8,84,17.1,81.4,14.7,80z M10,71c2.5,0,4.5,2,4.5,4.5S12.5,80,10,80s-4.5-2-4.5-4.5S7.5,71,10,71z"/>
<g>
	<path class="st20" d="M15,131H5c-1.7,0-3-1.3-3-3v-11c0-1.7,1.3-3,3-3h10c1.7,0,3,1.3,3,3v11C18,129.7,16.7,131,15,131z M5,116   c-0.6,0-1,0.4-1,1v11c0,0.6,0.4,1,1,1h10c0.6,0,1-0.4,1-1v-11c0-0.6-0.4-1-1-1H5z"/>
</g>
<path class="st20" d="M8,118v-1v-3.7c0-0.6,0.4-1.1,1-1.1h2c0.6,0,1,0.5,1,1.1v3.7v1h2v-1v-3.7c0-1.7-1.3-3-3-3H9.1  c-1.7,0-3.1,1.4-3.1,3v3.7v1H8z"/>
<path class="st20" d="M15,95h-0.7c-0.4-0.9-1.3-1.5-2.3-1.5s-1.9,0.6-2.3,1.5H5c-0.6,0-1,0.4-1,1s0.4,1,1,1h4.7  c0.4,0.9,1.3,1.5,2.3,1.5s1.9-0.6,2.3-1.5H15c0.6,0,1-0.4,1-1S15.6,95,15,95z M12,97c-0.6,0-1-0.4-1-1s0.4-1,1-1s1,0.4,1,1  S12.6,97,12,97z"/>
<path class="st20" d="M4,102c0,0.6,0.4,1,1,1h0.7c0.4,0.9,1.3,1.5,2.3,1.5s1.9-0.6,2.3-1.5H15c0.6,0,1-0.4,1-1s-0.4-1-1-1h-4.7  C9.9,100.1,9,99.5,8,99.5s-1.9,0.6-2.3,1.5H5C4.4,101,4,101.4,4,102z M7,102c0-0.6,0.4-1,1-1s1,0.4,1,1s-0.4,1-1,1S7,102.6,7,102z"/>
<g>
	<path class="st2" d="M108,26H88c-1.2,0-2-0.8-2-2V5c0-1.2,0.8-2,2-2h20c1.2,0,2,0.8,2,2v19C110,25.2,109.2,26,108,26z M108,6   c0-0.5-0.5-1-1-1H89c-0.5,0-1,0.5-1,1v2h20V6z M108,10H88v13c0,0.5,0.5,1,1,1h18c0.5,0,1-0.5,1-1V10z M104,20h-8.7H92   c-0.6,0-1-0.4-1-1s0.4-1,1-1h3.3h8.7c0.6,0,1,0.4,1,1S104.6,20,104,20z M104,16h-8.7H92c-0.6,0-1-0.4-1-1s0.4-1,1-1h3.3h8.7   c0.6,0,1,0.4,1,1S104.6,16,104,16z"/>
</g>
<g>
	<path class="st21" d="M144,26h-20c-1.2,0-2-0.8-2-2V5c0-1.2,0.8-2,2-2h20c1.2,0,2,0.8,2,2v19C146,25.2,145.2,26,144,26z M144,6   c0-0.5-0.5-1-1-1h-18c-0.5,0-1,0.5-1,1v2h20V6z M144,10h-20v13c0,0.5,0.5,1,1,1h18c0.5,0,1-0.5,1-1V10z M140,20h-8.7H128   c-0.6,0-1-0.4-1-1s0.4-1,1-1h3.3h8.7c0.6,0,1,0.4,1,1S140.6,20,140,20z M140,16h-8.7H128c-0.6,0-1-0.4-1-1s0.4-1,1-1h3.3h8.7   c0.6,0,1,0.4,1,1S140.6,16,140,16z"/>
</g>
<g>
	<path class="st2" d="M108,55h-6.7c-0.5,0-1,0.2-1.3,0.5L98,57l-2-1.5c-0.3-0.3-0.8-0.5-1.3-0.5H88c-1.2,0-2-0.9-2-2V36   c0-1.2,0.8-2,2-2h20c1.2,0,2,0.8,2,2v17C110,54.1,109.1,55,108,55z M108,37c0-0.5-0.5-1-1-1H89c-0.5,0-1,0.5-1,1v15   c0,0.5,0.5,1,1,1h6c0.6,0,1.6,0.2,2,0.7l1,0.8l1-0.8c0.4-0.4,1.4-0.7,2-0.7h6c0.5,0,1-0.6,1-1V37z M105.1,43H98h-7.1   c-0.5,0-0.9-0.4-0.9-1s0.4-1,0.9-1H98h7.1c0.5,0,0.9,0.4,0.9,1S105.6,43,105.1,43z M93,46h5h5c0.6,0,1,0.4,1,1s-0.4,1-1,1h-5h-5   c-0.6,0-1-0.4-1-1S92.4,46,93,46z"/>
</g>
<g>
	<path class="st21" d="M144,55h-6.7c-0.5,0-1,0.2-1.3,0.5l-2,1.5l-2-1.5c-0.3-0.3-0.8-0.5-1.3-0.5H124c-1.2,0-2-0.9-2-2V36   c0-1.2,0.8-2,2-2h20c1.2,0,2,0.8,2,2v17C146,54.1,145.1,55,144,55z M144,37c0-0.5-0.5-1-1-1h-18c-0.5,0-1,0.5-1,1v15   c0,0.5,0.5,1,1,1h6c0.6,0,1.6,0.2,2,0.7l1,0.8l1-0.8c0.4-0.4,1.4-0.7,2-0.7h6c0.5,0,1-0.6,1-1V37z M141.1,43H134h-7.1   c-0.5,0-0.9-0.4-0.9-1s0.4-1,0.9-1h7.1h7.1c0.5,0,0.9,0.4,0.9,1S141.6,43,141.1,43z M129,46h5h5c0.6,0,1,0.4,1,1s-0.4,1-1,1h-5h-5   c-0.6,0-1-0.4-1-1S128.4,46,129,46z"/>
</g>
<g>
	<path shape-rendering="geometricPrecision" class="st2" d="M107,75H89c-0.6,0-1-0.4-1-1s0.4-1,1-1h18c0.6,0,1,0.4,1,1   S107.6,75,107,75z"/>
</g>
<g>
	<path shape-rendering="geometricPrecision" class="st2" d="M107,83H89c-0.6,0-1-0.4-1-1s0.4-1,1-1h18c0.6,0,1,0.4,1,1   S107.6,83,107,83z"/>
</g>
<g>
	<path shape-rendering="geometricPrecision" class="st21" d="M143,67h-18c-0.6,0-1-0.4-1-1s0.4-1,1-1h18c0.6,0,1,0.4,1,1   S143.6,67,143,67z"/>
</g>
<g>
	<path shape-rendering="geometricPrecision" class="st21" d="M143,75h-18c-0.6,0-1-0.4-1-1s0.4-1,1-1h18c0.6,0,1,0.4,1,1   S143.6,75,143,75z"/>
</g>
<g>
	<path shape-rendering="geometricPrecision" class="st21" d="M143,83h-18c-0.6,0-1-0.4-1-1s0.4-1,1-1h18c0.6,0,1,0.4,1,1   S143.6,83,143,83z"/>
</g>
<g>
	<path class="st2" d="M106,96.8h-4v-1v-1v-1c0-1.2-0.8-2-2-2h-2h-7h-2c-1.2,0-2,0.8-2,2v1.3v19.7v1c0,1,0.9,2,2,2h2h12h3   c1.3,0,2-0.9,2-2V114v-12.2v-1v-2C108,97.6,107.2,96.8,106,96.8z M100,95.8v2v3v15h-9h-1c-0.5,0-1-0.4-1-1v-2.5v-0.5V95.3v-0.5   c0-0.5,0.5-1,1-1h1h7h1c0.5,0,1,0.5,1,1V95.8z M106,111.8v2v1c0,0.5-0.5,1-1,1h-2h-1v-15v-1v-1h3c0.5,0,1,0.5,1,1V111.8z"/>
	<path class="st2" d="M97.8,96h-0.4l0,0h-5.7l0,0h-0.4c-0.5,0-0.8,0.4-0.8,1s0.4,1,0.8,1h6.4c0.5,0,0.8-0.4,0.8-1S98.2,96,97.8,96z"/>
	<path class="st2" d="M97.8,101h-6.5c-0.5,0-0.8,0.4-0.8,1s0.4,1,0.8,1h6.4c0.5,0,0.8-0.4,0.8-1S98.2,101,97.8,101z"/>
	<path class="st2" d="M97.8,106h-6.5c-0.5,0-0.8,0.4-0.8,1s0.4,1,0.8,1h6.4c0.5,0,0.8-0.4,0.8-1S98.2,106,97.8,106z"/>
	<path class="st2" d="M97.8,111h-6.5c-0.5,0-0.8,0.4-0.8,1s0.4,1,0.8,1h6.4c0.5,0,0.8-0.4,0.8-1S98.2,111,97.8,111z"/>
</g>
<g>
	<path class="st21" d="M142,96.8h-4v-1v-1v-1c0-1.2-0.8-2-2-2h-2h-7h-2c-1.2,0-2,0.8-2,2v1.3v19.7v1c0,1,0.9,2,2,2h2h12h3   c1.3,0,2-0.9,2-2V114v-12.2v-1v-2C144,97.6,143.2,96.8,142,96.8z M136,95.8v2v3v15h-9h-1c-0.5,0-1-0.4-1-1v-2.5v-0.5V95.3v-0.5   c0-0.5,0.5-1,1-1h1h7h1c0.5,0,1,0.5,1,1V95.8z M142,111.8v2v1c0,0.5-0.5,1-1,1h-2h-1v-15v-1v-1h3c0.5,0,1,0.5,1,1V111.8z"/>
	<path class="st21" d="M133.8,96h-0.4l0,0h-5.7l0,0h-0.4c-0.5,0-0.8,0.4-0.8,1s0.4,1,0.8,1h6.4c0.5,0,0.8-0.4,0.8-1   S134.2,96,133.8,96z"/>
	<path class="st21" d="M133.8,101h-6.5c-0.5,0-0.8,0.4-0.8,1s0.4,1,0.8,1h6.4c0.5,0,0.8-0.4,0.8-1S134.2,101,133.8,101z"/>
	<path class="st21" d="M133.8,106h-6.5c-0.5,0-0.8,0.4-0.8,1s0.4,1,0.8,1h6.4c0.5,0,0.8-0.4,0.8-1S134.2,106,133.8,106z"/>
	<path class="st21" d="M133.8,111h-6.5c-0.5,0-0.8,0.4-0.8,1s0.4,1,0.8,1h6.4c0.5,0,0.8-0.4,0.8-1S134.2,111,133.8,111z"/>
</g>
<path class="st2" d="M107.7,144.8l-4.8-4.8c1.3-1.6,2.1-3.7,2.1-6c0-5.2-4.3-9.5-9.5-9.5S86,128.8,86,134s4.3,9.5,9.5,9.5  c2.3,0,4.3-0.8,6-2.1l4.8,4.8c0.4,0.4,1,0.4,1.4,0C108.1,145.8,108.1,145.2,107.7,144.8z M88,134c0-4.1,3.4-7.5,7.5-7.5  s7.5,3.4,7.5,7.5s-3.4,7.5-7.5,7.5S88,138.1,88,134z"/>
<path class="st21" d="M143.7,144.8l-4.8-4.8c1.3-1.6,2.1-3.7,2.1-6c0-5.2-4.3-9.5-9.5-9.5s-9.5,4.3-9.5,9.5s4.3,9.5,9.5,9.5  c2.3,0,4.3-0.8,6-2.1l4.8,4.8c0.4,0.4,1,0.4,1.4,0C144.1,145.8,144.1,145.2,143.7,144.8z M124,134c0-4.1,3.4-7.5,7.5-7.5  c4.1,0,7.5,3.4,7.5,7.5s-3.4,7.5-7.5,7.5S124,138.1,124,134z"/>
<g>
	<path shape-rendering="geometricPrecision" class="st11" d="M276.2,44.9l-9.7,9.7c-2,2-5.7,1.9-7.6-0.2c-1-1-1.5-2.3-1.5-3.8   s0.5-2.8,1.5-3.8l11.9-12c1.3-1.3,3.5-1.3,4.8,0c0.7,0.7,1.2,1.7,1.2,2.7s-0.3,1.8-1,2.5l-11,11c-0.7,0.7-1.7,0.4-2.4-0.2   c-0.3-0.3-0.5-0.7-0.5-1.2c0-0.3,0.2-0.8,0.5-1.2l10.5-10.5c0.2-0.2,0.3-0.5,0.3-0.7c0-0.3-0.2-0.5-0.3-0.7c-0.3-0.3-1-0.3-1.3,0   L261,47.3c-0.7,0.7-1,1.5-1,2.5s0.3,1.8,1,2.5c1.3,1.3,3.6,1.3,4.9,0l11-11c1-1,1.6-2.3,1.6-3.8s-0.5-2.8-1.6-3.8   c-2.1-2.1-5.4-2.1-7.6,0l-11.9,12c-1.3,1.3-2.1,3.1-2.1,5.1s0.8,3.8,2.1,5.1c1.5,1.5,3.3,2.1,5.1,2.1c1.8,0,3.6-0.7,5.1-2.1   l9.7-9.7c0.2-0.2,0.3-0.5,0.3-0.7c0-0.3-0.2-0.5-0.3-0.7C276.8,44.3,276.7,44.5,276.2,44.9z"/>
</g>
<path class="st22" d="M301.4,5.3H299h-0.3l-0.3-1.5c-0.1-0.5-0.5-0.9-1-0.9H295l0,0l0,0h-2.4c-0.5,0-0.9,0.4-1,0.9l-0.3,1.5H291  h-2.4c-0.4,0-0.6,0.2-0.6,0.6s0.3,0.6,0.6,0.6h0.9l0.5,11c0,0.7,0.6,1.5,1.5,1.5h3.4h3.4c0.8,0,1.5-0.6,1.5-1.5l0.5-11h0.9  c0.4,0,0.6-0.2,0.6-0.6C302,5.6,301.7,5.3,301.4,5.3z M292.7,4.5c0-0.1,0.1-0.2,0.3-0.2h0.8h1.3l0,0l0,0h1.3h0.8  c0.1,0,0.3,0.1,0.3,0.2l0.1,0.9H295h-2.4L292.7,4.5z M298.7,17.5c0,0.1-0.1,0.2-0.3,0.2H295h-3.4c-0.1,0-0.3-0.1-0.3-0.2l-0.5-10.8  c0-0.1,0.1-0.2,0.3-0.2h3.9h3.9c0.1,0,0.3,0.1,0.3,0.2L298.7,17.5z"/>
<g>
	<path class="st22" d="M300,85h-10c-1.1,0-2-0.9-2-2V71c0-1.1,0.9-2,2-2h9.9c1.1,0,2,0.9,2,2v12C302,84.1,301.1,85,300,85z    M290,70.2c-0.4,0-0.8,0.4-0.8,0.7V83c0,0.4,0.4,0.7,0.8,0.7h9.9c0.4,0,0.8-0.4,0.8-0.7V71c0-0.4-0.4-0.7-0.8-0.7   C300,70.2,290,70.2,290,70.2z"/>
</g>
<g>
	<path class="st22" d="M295.1,81.6c-1.5,0-2.8-1.4-2.8-3v-4.3c0-1,0.8-1.8,1.7-1.8c0.9,0,1.7,0.9,1.7,1.8v3.6c0,0.4-0.3,0.6-0.6,0.6   s-0.6-0.2-0.6-0.6v-3.6c0-0.4-0.3-0.5-0.5-0.5c-0.3,0-0.5,0.2-0.5,0.5v4.3c0,1,0.8,1.7,1.5,1.7s1.5-0.7,1.5-1.7v-3.9   c0-0.4,0.3-0.6,0.6-0.6c0.4,0,0.6,0.2,0.6,0.6v3.9C297.8,80.1,296.6,81.6,295.1,81.6z"/>
</g>
<g>
	<path class="st22" d="M295,41.5c-4.1,0-7.5-3.4-7.5-7.5s3.4-7.5,7.5-7.5s7.5,3.4,7.5,7.5S299.1,41.5,295,41.5z M295,27.8   c-3.5,0-6.3,2.8-6.3,6.3s2.8,6.3,6.3,6.3s6.3-2.8,6.3-6.3S298.5,27.8,295,27.8z"/>
</g>
<g>
	<path class="st22" d="M298.8,33.5h-3.1v-3.1c0-0.4-0.3-0.6-0.6-0.6c-0.4,0-0.6,0.3-0.6,0.6v3.1h-3.1c-0.4,0-0.6,0.3-0.6,0.6   s0.3,0.6,0.6,0.6h3.1v3.1c0,0.4,0.3,0.6,0.6,0.6c0.4,0,0.6-0.3,0.6-0.6v-3.1h3.1c0.4,0,0.6-0.3,0.6-0.6S299.1,33.5,298.8,33.5z"/>
</g>
<g>
	<path class="st22" d="M295,192.5c-4.1,0-7.5-3.4-7.5-7.5s3.4-7.5,7.5-7.5s7.5,3.4,7.5,7.5S299.1,192.5,295,192.5z M295,178.8   c-3.5,0-6.3,2.8-6.3,6.3s2.8,6.3,6.3,6.3s6.3-2.8,6.3-6.3S298.5,178.8,295,178.8z"/>
</g>
<g>
	<path class="st22" d="M295,183.9c-0.4,0-0.6,0.2-0.6,0.6v0.6v1.3v3.1c0,0.4,0.3,0.6,0.6,0.6c0.4,0,0.6-0.3,0.6-0.6v-3.1v-1.3v-0.6   C295.6,184.1,295.4,183.9,295,183.9z"/>
</g>
<g>
	<circle class="st22" cx="295" cy="182.2" r="0.8"/>
</g>
<g>
	<path class="st22" d="M295,62.5c-1.9,0-3.9-0.7-5.3-2.2c-2.9-2.9-2.9-7.6,0-10.5c1.4-1.4,3.3-2.2,5.3-2.2l0,0c2,0,3.9,0.7,5.3,2.2   c2.9,2.9,2.9,7.6,0,10.5C298.9,61.8,296.9,62.5,295,62.5z M295,48.9c-1.6,0-3.3,0.6-4.4,1.9c-1.1,1.1-1.9,2.7-1.9,4.3   s0.6,3.2,1.9,4.3c2.4,2.5,6.5,2.5,9,0s2.5-6.3,0-8.8C298.3,49.5,296.6,48.9,295,48.9L295,48.9z"/>
</g>
<g>
	<path class="st22" d="M298.2,57.3l-2.3-2.2l2.3-2.2c0.3-0.2,0.3-0.6,0-0.9c-0.3-0.2-0.6-0.2-0.9,0l-2.3,2.2l-2.3-2.2   c-0.3-0.2-0.6-0.2-0.9,0s-0.3,0.6,0,0.9l2.3,2.2l-2.3,2.2c-0.3,0.2-0.3,0.6,0,0.9c0.3,0.2,0.6,0.2,0.9,0L295,56l2.3,2.2   c0.3,0.2,0.6,0.2,0.9,0C298.4,57.9,298.4,57.5,298.2,57.3z"/>
</g>
<g>
	<path class="st22" d="M296.4,147.9c-0.1,0.6-0.7,1.1-1.4,1.1c-0.6,0-1.2-0.5-1.4-1.1v-0.3h-1.1v0.3c0.1,1.3,1.2,2.1,2.5,2.1   c1.2,0,2.3-0.9,2.5-2.1v-0.3h-1.1V147.9z"/>
	<g>
		<path class="st22" d="M300.8,143.5c0,0-0.1-0.1-0.1-0.3l-0.4-2.5l-1,0.9l0.2,1.8c0,0.4,0.2,0.6,0.5,0.9l0.9,0.9v0.6    c0,0,0,0.1-0.1,0.1h-6.4L293,147h7.7c0.6,0,1.2-0.5,1.2-1.3v-0.6c0-0.4-0.1-0.6-0.4-0.9L300.8,143.5z"/>
		<path class="st22" d="M289.2,147L289.2,147l1.4-1.1h-1.4c0,0-0.1,0-0.1-0.1v-0.6l0.9-0.9c0.2-0.2,0.4-0.5,0.5-0.9l0.6-4.8    c0.2-2,2-3.4,3.9-3.4c2,0,3.6,1.5,3.9,3.4l1-0.9c-0.6-2.1-2.6-3.8-4.9-3.8c-2.5,0-4.7,1.9-5,4.4l-0.6,4.8c0,0.1,0,0.1-0.1,0.3    l-0.9,0.9c-0.2,0.3-0.4,0.5-0.4,0.9v0.6C288,146.5,288.5,147,289.2,147z"/>
	</g>
</g>
<path class="st22" d="M301.8,137.1c-0.2-0.3-0.6-0.3-0.9,0l-12.8,11.1c-0.2,0.3-0.2,0.6,0,0.9s0.6,0.3,0.9,0l12.8-11.1  C302.1,137.8,302.1,137.4,301.8,137.1z"/>
<g>
	<path class="st22" d="M301.6,165.5l-0.9-0.9c0,0-0.1-0.1-0.1-0.3l-0.6-4.8c-0.4-2.5-2.5-4.4-5-4.4s-4.7,1.9-5,4.4l-0.6,4.8   c0,0.1,0,0.1-0.1,0.3l-0.9,0.9c-0.2,0.3-0.4,0.5-0.4,0.9v0.6c0,0.6,0.5,1.3,1.2,1.3h11.5c0.6,0,1.2-0.5,1.2-1.3v-0.6   C302,166,301.9,165.8,301.6,165.5z M300.9,166.4v0.6c0,0,0,0.1-0.1,0.1h-11.5c0,0-0.1,0-0.1-0.1v-0.6l0.9-0.9   c0.2-0.3,0.4-0.5,0.5-0.9l0.6-4.8c0.2-2,2-3.4,3.9-3.4c2,0,3.6,1.5,3.9,3.4l0.6,4.8c0,0.4,0.2,0.6,0.5,0.9L300.9,166.4z"/>
	<path class="st22" d="M296.4,169c-0.1,0.6-0.7,1.1-1.4,1.1c-0.6,0-1.2-0.5-1.4-1.1v-0.3h-1.1v0.3c0.1,1.3,1.2,2.1,2.5,2.1   c1.2,0,2.3-0.9,2.5-2.1v-0.3h-1.1V169z"/>
</g>
<path class="st23" d="M293.2,102l4.3-3l-4.3-3V102z M293.8,97.2l2.8,1.8l-2.8,1.8V97.2z"/>
<circle class="st24" cx="295" cy="99" r="6.9"/>
<path class="st22" d="M295,116.7c-1,0-1.9,0.9-1.9,1.9s0.9,1.9,1.9,1.9s1.9-0.9,1.9-1.9S296,116.7,295,116.7z M295.8,118.6  c0,0.4-0.4,0.8-0.8,0.8s-0.8-0.4-0.8-0.8s0.4-0.8,0.8-0.8S295.8,118.2,295.8,118.6z"/>
<path class="st25" d="M290,126.4h9.9c0.8,0,1.4-0.6,1.4-1.4v-10c0-0.8-0.6-1.4-1.4-1.4H290c-0.8,0-1.4,0.6-1.4,1.4v9.9  C288.6,125.7,289.3,126.4,290,126.4z"/>
<path class="st22" d="M298.9,120.7c-0.3-0.2-0.6-0.2-1,0l-4.2,3.2l-1.5-1.3c-0.3-0.2-0.6-0.2-1,0l-2.5,2v1.6l3.1-2.4l1.5,1.4  c0.3,0.2,0.8,0.2,1,0c0.1-0.1,1.5-1.3,3.1-2.4l1.1-0.9l3.1,2.6v-1.7L298.9,120.7z"/>
<path class="st11" d="M302.3,215.3L299,212c0.9-1.1,1.4-2.5,1.4-4.1c0-3.5-2.9-6.5-6.5-6.5s-6.5,2.9-6.5,6.5s2.9,6.5,6.5,6.5  c1.6,0,2.9-0.5,4.1-1.4l3.3,3.3c0.3,0.3,0.7,0.3,1,0C302.6,216,302.6,215.6,302.3,215.3z M288.9,208c0-2.8,2.3-5.1,5.1-5.1  c2.8,0,5.1,2.3,5.1,5.1s-2.3,5.1-5.1,5.1S288.9,210.8,288.9,208z"/>
<path class="st22" d="M333.7,11.8V4.4l7.8,7.9l0.1,0.1h-7.3C333.9,12.4,333.7,12.1,333.7,11.8z M342,13.6v18.6c0,1-0.8,1.8-1.8,1.8  h-21.4c-1,0-1.8-0.8-1.8-1.8V5.8c0-1,0.8-1.8,1.8-1.8h13.7v7.8c0,1,0.8,1.8,1.8,1.8H342z M323,17.8c0,0.3,0.3,0.6,0.6,0.6h7.1  c0.3,0,0.6-0.3,0.6-0.6c0-0.3-0.3-0.6-0.6-0.6h-7.1C323.2,17.2,323,17.5,323,17.8z M336,27.4c0-0.3-0.3-0.6-0.6-0.6h-11.9  c-0.3,0-0.6,0.3-0.6,0.6c0,0.3,0.3,0.6,0.6,0.6h11.9C335.8,28,336,27.7,336,27.4z M336,22.6c0-0.3-0.3-0.6-0.6-0.6h-11.9  c-0.3,0-0.6,0.3-0.6,0.6c0,0.3,0.3,0.6,0.6,0.6h11.9C335.8,23.2,336,22.9,336,22.6z"/>
<path class="st3" d="M105,176H89c-0.6,0-1-0.4-1-1l0,0c0-0.6,0.4-1,1-1h16c0.6,0,1,0.4,1,1l0,0C106,175.6,105.6,176,105,176z"/>
<path class="st3" d="M95.7,183.1l-7.4-7.4c-0.4-0.4-0.4-1,0-1.4l0,0c0.4-0.4,1-0.4,1.4,0l7.4,7.4c0.4,0.4,0.4,1,0,1.4l0,0  C96.7,183.5,96,183.5,95.7,183.1z"/>
<path class="st3" d="M97.1,168.3l-7.4,7.4c-0.4,0.4-1,0.4-1.4,0l0,0c-0.4-0.4-0.4-1,0-1.4l7.4-7.4c0.4-0.4,1-0.4,1.4,0l0,0  C97.5,167.3,97.5,167.9,97.1,168.3z"/>
<path class="st9" d="M106.2,208.2l-5.3-5.3c1.1-1.4,1.7-3.1,1.7-4.8c0-4.2-3.4-7.6-7.6-7.6s-7.6,3.4-7.6,7.6c0,4.2,3.4,7.6,7.6,7.6  c1.7,0,3.4-0.6,4.8-1.7l5.3,5.3c0.1,0.1,0.3,0.2,0.5,0.2s0.4-0.1,0.5-0.2C106.5,209,106.5,208.5,106.2,208.2z M95.1,204.2  c-3.3,0-6.1-2.7-6.1-6.1c0-3.4,2.7-6.1,6.1-6.1c3.3,0,6.1,2.7,6.1,6.1S98.4,204.2,95.1,204.2z"/>
<g>
	<path class="st9" d="M110,239h-6.7c-0.5,0-1,0.2-1.3,0.5l-2,1.5l-2-1.5c-0.3-0.3-0.8-0.5-1.3-0.5H90c-1.2,0-2-0.9-2-2v-16   c0-1.2,0.8-2,2-2h20c1.2,0,2,0.8,2,2v16C112,238.1,111.1,239,110,239z M110,222c0-0.5-0.5-1-1-1H91c-0.5,0-1,0.5-1,1v14   c0,0.5,0.5,1,1,1h6c0.6,0,1.6,0.2,2,0.7l1,0.8l1-0.8c0.4-0.4,1.4-0.7,2-0.7h6c0.5,0,1-0.6,1-1V222z"/>
</g>
<path class="st9" d="M104,230h-8c-0.6,0-1-0.4-1-1l0,0c0-0.6,0.4-1,1-1h8c0.6,0,1,0.4,1,1l0,0C105,229.6,104.6,230,104,230z"/>
<path class="st9" d="M101,225v8c0,0.6-0.4,1-1,1l0,0c-0.6,0-1-0.4-1-1v-8c0-0.6,0.4-1,1-1l0,0C100.6,224,101,224.4,101,225z"/>
<g>
	<path class="st1" d="M146,239h-6.7c-0.5,0-1,0.2-1.3,0.5l-2,1.5l-2-1.5c-0.3-0.3-0.8-0.5-1.3-0.5H126c-1.2,0-2-0.9-2-2v-16   c0-1.2,0.8-2,2-2h20c1.2,0,2,0.8,2,2v16C148,238.1,147.1,239,146,239z M146,222c0-0.5-0.5-1-1-1h-18c-0.5,0-1,0.5-1,1v14   c0,0.5,0.5,1,1,1h6c0.6,0,1.6,0.2,2,0.7l1,0.8l1-0.8c0.4-0.4,1.4-0.7,2-0.7h6c0.5,0,1-0.6,1-1V222z"/>
</g>
<path class="st1" d="M140,230h-8c-0.6,0-1-0.4-1-1l0,0c0-0.6,0.4-1,1-1h8c0.6,0,1,0.4,1,1l0,0C141,229.6,140.6,230,140,230z"/>
<path class="st1" d="M137,225v8c0,0.6-0.4,1-1,1l0,0c-0.6,0-1-0.4-1-1v-8c0-0.6,0.4-1,1-1l0,0C136.6,224,137,224.4,137,225z"/>
<path class="st22" d="M292,231.7l3.2,3.2c0.2,0.2,0.6,0.2,0.9,0c0.1-0.1,0.2-0.3,0.2-0.4c0-0.2-0.1-0.3-0.2-0.4l-2.2-2.2h9.5  c0.3,0,0.6-0.3,0.6-0.6s-0.3-0.6-0.6-0.6h-9.5l2.2-2.2c0.1-0.1,0.2-0.3,0.2-0.4c0-0.2-0.1-0.3-0.2-0.4c-0.1-0.1-0.3-0.2-0.4-0.2  c-0.2,0-0.3,0.1-0.4,0.2l-3.2,3.2c-0.1,0.1-0.2,0.3-0.2,0.4C291.8,231.4,291.9,231.6,292,231.7z"/>
<path class="st22" d="M296.1,222.8h-5.5c-1.2,0-2.1,0.9-2.1,2.1v12.8c0,1.2,0.9,2.1,2.1,2.1h5.5c1.2,0,2.1-0.9,2.1-2.1v-0.5v-1.3  c0-0.3-0.3-0.6-0.6-0.6c-0.4,0-0.6,0.3-0.6,0.6v1.9c0,0.4-0.3,0.8-0.8,0.8h-5.5c-0.4,0-0.8-0.3-0.8-0.8V225c0-0.4,0.3-0.8,0.8-0.8  h5.5c0.4,0,0.8,0.3,0.8,0.8v1.9c0,0.3,0.3,0.6,0.7,0.6s0.7-0.3,0.7-0.6v-1v-1C298.2,223.7,297.3,222.8,296.1,222.8z"/>
<path class="st26" d="M221.3,215.6c0.3-0.7,0.7-0.7,1,0l1.5,3.5l3.3,0.3c0.7,0.1,0.9,0.5,0.3,1l-2.6,2.3l1,3.7  c0.2,0.7-0.1,0.9-0.7,0.5l-3.3-2.4l-3.3,2.4c-0.6,0.4-0.9,0.2-0.7-0.5l1-3.7l-2.6-2.3c-0.6-0.5-0.4-0.9,0.3-1l3.3-0.3L221.3,215.6z"/>
<path class="st27" d="M243.3,215.6c0.3-0.7,0.7-0.7,1,0l1.5,3.5l3.3,0.3c0.7,0.1,0.9,0.5,0.3,1l-2.6,2.3l1,3.7  c0.2,0.7-0.1,0.9-0.7,0.5l-3.3-2.4l-3.3,2.4c-0.6,0.4-0.9,0.2-0.7-0.5l1-3.7l-2.6-2.3c-0.6-0.5-0.4-0.9,0.3-1l3.3-0.3L243.3,215.6z"/>
<path class="st22" d="M224.4,236.2c0.5-1.2,1.2-1.2,1.7,0l2.5,5.8l5.5,0.5c1.2,0.2,1.5,0.8,0.5,1.7l-4.3,3.8l1.7,6.2  c0.3,1.2-0.2,1.5-1.2,0.8l-5.5-4l-5.5,4c-1,0.7-1.5,0.3-1.2-0.8l1.7-6.2l-4.3-3.8c-1-0.8-0.7-1.5,0.5-1.7l5.5-0.5L224.4,236.2z"/>
<path class="st27" d="M256.6,236.2c0.5-1.2,1.2-1.2,1.7,0l2.5,5.8l5.5,0.5c1.2,0.2,1.5,0.8,0.5,1.7l-4.3,3.8l1.7,6.2  c0.3,1.2-0.2,1.5-1.2,0.8l-5.5-4l-5.5,4c-1,0.7-1.5,0.3-1.2-0.8l1.7-6.2l-4.3-3.8c-1-0.8-0.7-1.5,0.5-1.7l5.5-0.5L256.6,236.2z"/>
<g>
	<path shape-rendering="geometricPrecision" class="st28" d="M42.8,259.7c0.3,0.3,0.3,0.9,0,1.2c-0.2,0.2-0.4,0.2-0.6,0.2   c-0.2,0-0.4-0.1-0.6-0.2l-4.5-4.5l-4.5,4.5c-0.2,0.2-0.4,0.2-0.6,0.2c-0.2,0-0.4-0.1-0.6-0.2c-0.3-0.3-0.3-0.9,0-1.2l4.5-4.5   l-4.5-4.5c-0.3-0.3-0.3-0.9,0-1.2s0.9-0.3,1.2,0l4.5,4.5l4.5-4.5c0.3-0.3,0.9-0.3,1.2,0s0.3,0.9,0,1.2l-4.5,4.5L42.8,259.7z"/>
</g>
<path class="st3" d="M146,179h-14.1c-0.4-1.7-2-3-3.9-3s-3.4,1.3-3.9,3H122c-0.6,0-1,0.4-1,1s0.4,1,1,1h2.1c0.4,1.7,2,3,3.9,3  c1.9,0,3.4-1.3,3.9-3H146c0.6,0,1-0.4,1-1S146.6,179,146,179z M128,182c-0.7,0-1.4-0.4-1.7-1l0,0c-0.1-0.1-0.1-0.3-0.2-0.4  c0,0,0,0,0-0.1c0-0.2-0.1-0.3-0.1-0.5s0-0.3,0.1-0.5c0,0,0,0,0-0.1c0-0.2,0.1-0.3,0.2-0.4l0,0c0.3-0.6,1-1,1.7-1s1.4,0.4,1.7,1l0,0  c0.1,0.1,0.1,0.3,0.2,0.4c0,0,0,0,0,0.1c0,0.2,0.1,0.3,0.1,0.5s0,0.3-0.1,0.5c0,0,0,0,0,0.1c0,0.2-0.1,0.3-0.2,0.4l0,0  C129.4,181.6,128.7,182,128,182z"/>
<path class="st3" d="M122,171h14.1c0.4,1.7,2,3,3.9,3s3.4-1.3,3.9-3h2.1c0.6,0,1-0.4,1-1s-0.4-1-1-1h-2.1c-0.4-1.7-2-3-3.9-3  s-3.4,1.3-3.9,3H122c-0.6,0-1,0.4-1,1S121.4,171,122,171z M140,168c0.7,0,1.4,0.4,1.7,1l0,0c0.1,0.1,0.1,0.3,0.2,0.4c0,0,0,0,0,0.1  c0,0.2,0.1,0.3,0.1,0.5s0,0.3-0.1,0.5c0,0,0,0,0,0.1c0,0.2-0.1,0.3-0.2,0.4l0,0c-0.3,0.6-1,1-1.7,1s-1.4-0.4-1.7-1l0,0  c-0.1-0.1-0.1-0.3-0.2-0.4c0,0,0,0,0-0.1c0-0.2-0.1-0.3-0.1-0.5s0-0.3,0.1-0.5c0,0,0,0,0-0.1c0-0.2,0.1-0.3,0.2-0.4l0,0  C138.6,168.4,139.3,168,140,168z"/>
<path class="st18" d="M105,257H89c-0.6,0-1-0.4-1-1l0,0c0-0.6,0.4-1,1-1h16c0.6,0,1,0.4,1,1l0,0C106,256.6,105.6,257,105,257z"/>
<path class="st18" d="M95.7,264.1l-7.4-7.4c-0.4-0.4-0.4-1,0-1.4l0,0c0.4-0.4,1-0.4,1.4,0l7.4,7.4c0.4,0.4,0.4,1,0,1.4l0,0  C96.7,264.5,96,264.5,95.7,264.1z"/>
<path class="st18" d="M97.1,249.3l-7.4,7.4c-0.4,0.4-1,0.4-1.4,0l0,0c-0.4-0.4-0.4-1,0-1.4l7.4-7.4c0.4-0.4,1-0.4,1.4,0l0,0  C97.5,248.3,97.5,248.9,97.1,249.3z"/>
<g>
	<path shape-rendering="geometricPrecision" class="st17" d="M69.8,259.7c0.3,0.3,0.3,0.9,0,1.2c-0.2,0.2-0.4,0.2-0.6,0.2   s-0.4-0.1-0.6-0.2l-4.5-4.5l-4.5,4.5c-0.2,0.2-0.4,0.2-0.6,0.2c-0.2,0-0.4-0.1-0.6-0.2c-0.3-0.3-0.3-0.9,0-1.2l4.5-4.5l-4.5-4.5   c-0.3-0.3-0.3-0.9,0-1.2s0.9-0.3,1.2,0l4.5,4.5l4.5-4.5c0.3-0.3,0.9-0.3,1.2,0s0.3,0.9,0,1.2l-4.5,4.5L69.8,259.7z"/>
</g>
<path class="st22" d="M237.6,270.4l-2.5-2.5c-0.6-0.6-1.7-0.6-2.3,0L218.7,282c-0.3,0.3-0.5,0.7-0.5,1.2v2.9c0,0.3,0.1,0.6,0.4,0.8  c0.2,0.2,0.5,0.4,0.8,0.4h2.9c0.4,0,0.9-0.2,1.2-0.5l14.1-14.1C238.3,272.1,238.3,271,237.6,270.4z M222.4,285.8L222.4,285.8h-1.6  l0.1-1.1l-1.1,0.1v-1.5v-0.1l0.3-0.3l2,0.6l0.7,2L222.4,285.8z M224,284.2l-0.6-1.9l-2-0.7l10.8-10.8l2.6,2.6L224,284.2z   M235.9,272.3l-2.6-2.6l0.7-0.7c0,0,0.1,0,0.2,0l2.5,2.5c0,0,0,0.1,0,0.2L235.9,272.3z"/>
<path class="st22" d="M235.5,285.6h-9.2c-0.5,0-0.9,0.4-0.9,0.9s0.4,0.9,0.9,0.9h9.2c0.5,0,0.9-0.4,0.9-0.9S236,285.6,235.5,285.6z"/>
<path class="st22" d="M298.3,255.4c1.3-0.9,2.1-2.3,2.1-3.9c0-2.6-2.1-4.7-4.7-4.7s-4.7,2.1-4.7,4.7c0,1.6,0.8,3,2.1,3.9  c-2.5,1-4.2,3.6-4.2,6.3v1.1c0,0.4,0.3,0.7,0.7,0.7c0.4,0,0.7-0.3,0.7-0.7v-1.1c0-3,2.5-5.5,5.5-5.5s5.5,2.5,5.5,5.5v1.1  c0,0.4,0.3,0.7,0.7,0.7c0.4,0,0.7-0.3,0.7-0.7v-1.1C302.6,258.9,300.8,256.4,298.3,255.4z M295.7,248.2c1.8,0,3.3,1.5,3.3,3.3  s-1.5,3.3-3.3,3.3s-3.3-1.5-3.3-3.3C292.4,249.7,293.9,248.2,295.7,248.2z"/>
<path class="st22" d="M298.3,263.7l-1.6-1.4l1.6-1.4c0.3-0.2,0.3-0.7,0.1-0.9c-0.2-0.3-0.7-0.3-0.9-0.1l-1.8,1.5l-1.8-1.5  c-0.3-0.2-0.7-0.2-0.9,0.1c-0.2,0.3-0.2,0.7,0.1,0.9l1.6,1.4l-1.6,1.4c-0.3,0.2-0.3,0.7-0.1,0.9c0.2,0.3,0.7,0.3,0.9,0.1l1.8-1.5  l1.8,1.5c0.3,0.2,0.7,0.2,0.9-0.1C298.6,264.3,298.6,263.9,298.3,263.7z"/>
<path class="st9" d="M138.2,206.8l-4.1-4.1c0.9-1.2,1.4-2.6,1.4-4.2c0-3.9-3.1-7-7-7c-3.9,0-7,3.1-7,7s3.1,7,7,7  c1.6,0,3-0.5,4.2-1.4l4.1,4.1c0.4,0.4,1,0.4,1.4,0C138.6,207.8,138.6,207.2,138.2,206.8z M123.5,198.5c0-2.8,2.2-5,5-5s5,2.2,5,5  s-2.2,5-5,5C125.8,203.5,123.5,201.3,123.5,198.5z"/>
<path class="st22" d="M306.2,274.7l-2.1-2.1c-0.5-0.5-1.5-0.5-2,0l-12.1,12c-0.3,0.3-0.4,0.6-0.4,1v2.5c0,0.3,0.1,0.5,0.3,0.7  c0.2,0.2,0.4,0.3,0.7,0.3h2.5c0.3,0,0.8-0.2,1-0.4l12.1-12.1C306.8,276.1,306.8,275.2,306.2,274.7z M293.2,287.9L293.2,287.9h-1.4  l0.1-0.9H291v-1.3v-0.1l0.3-0.3l1.7,0.5l0.6,1.7L293.2,287.9z M294.6,286.5l-0.5-1.6l-1.7-0.6l9.2-9.2l2.2,2.2L294.6,286.5z   M304.7,276.3l-2.2-2.2l0.6-0.6c0,0,0.1,0,0.2,0l2.1,2.1c0,0,0,0.1,0,0.2L304.7,276.3z"/>
<path class="st22" d="M305.5,288.9h-9.2c-0.5,0-0.9,0.4-0.9,0.9s0.4,0.9,0.9,0.9h9.2c0.5,0,0.9-0.4,0.9-0.9S306,288.9,305.5,288.9z"/>
<path class="st27" d="M369.8,2h-12.6c-1.8,0-3.2,1.4-3.2,3.1v9.5c0,1.7,1.4,3.1,3.2,3.1h3.9l2.4,2.2l2.4-2.2h3.9  c1.8,0,3.2-1.4,3.2-3.1V5.1C373,3.4,371.6,2,369.8,2z M369.9,12.1c0,0.5-0.4,1-1,1h-10.9c-0.6,0-1-0.4-1-1v-0.3c0-0.5,0.4-1,1-1  h10.9c0.6,0,1,0.4,1,1V12.1z M369.9,7.7c0,0.5-0.4,1-1,1h-10.9c-0.6,0-1-0.4-1-1V7.4c0-0.5,0.4-1,1-1h10.9c0.6,0,1,0.4,1,1V7.7z"/>
<path class="st22" d="M367.7,30.1l-8.8,0c-1.1,0-2.1,0.9-2.1,2v12.5c0,1.1,0.9,2,2.1,2l8.8,0c1.2,0,2.1-0.9,2.1-2v-0.5v-1.2v-0.1V33  v-0.9C369.7,31,368.8,30.1,367.7,30.1z M367.7,45.4l-8.8,0c-0.4,0-0.8-0.3-0.8-0.8V32.1c0-0.4,0.3-0.8,0.8-0.8l8.8,0  c0.4,0,0.8,0.3,0.8,0.8l0,10.8c0,0,0,0,0,0.1l0,1.7C368.4,45,368.1,45.4,367.7,45.4z"/>
<path class="st22" d="M364.6,37.2c-0.5,0-1,0.2-1.3,0.6c-0.4-0.4-0.8-0.6-1.3-0.6c-1,0-1.9,0.9-1.9,2c0,1.3,2.7,4.1,3.2,4.1h0  c0.5,0,3.2-2.8,3.2-4.1C366.5,38.1,365.6,37.2,364.6,37.2z M365.4,39.2c0,0.4-1.3,2.1-2.1,2.8c-0.8-0.7-2.1-2.4-2.1-2.8  c0-0.5,0.4-0.8,0.8-0.8c0.2,0,0.5,0.1,0.6,0.3l0.7,1l0.7-1c0.2-0.2,0.4-0.3,0.6-0.3C365,38.3,365.4,38.7,365.4,39.2z"/>
<path class="st22" d="M367.4,30.1v-0.8c0-0.3-0.3-0.6-0.6-0.6s-0.6,0.3-0.6,0.6v0.8h-2.4v-0.8c0-0.3-0.3-0.6-0.6-0.6  c-0.3,0-0.6,0.3-0.6,0.6v0.8h-2.4v-0.8c0-0.3-0.3-0.6-0.6-0.6s-0.6,0.3-0.6,0.6v0.8h-0.4v1.1l8.9,0v-1.1L367.4,30.1z"/>
<rect x="357.6" y="33.9" class="st22" width="11.2" height="1.3"/>
<path class="st22" d="M370.4,58.4h-14.3c-0.7,0-1.4,0.6-1.4,1.3v9.9c0,0.7,0.6,1.3,1.4,1.3h14.3c0.7,0,1.4-0.6,1.4-1.3v-9.9  C371.7,59,371.1,58.4,370.4,58.4z M370.3,62.2l0,7.3l-14.2,0l0-7.3l6.2,3.5c0.5,0.3,1.2,0.3,1.7,0L370.3,62.2z M370.3,60.4l-6.9,3.9  c-0.1,0-0.2,0-0.3,0l-6.9-3.9l0-0.7l14.1,0V60.4z"/>
<path class="st22" d="M370.8,91.2l-2.2-2.2c-0.5-0.5-1.5-0.5-2,0l-1,1c-0.2,0.2-0.5,0.2-0.7,0.1c-0.9-0.5-1.1-0.8-2.3-2  c-1.1-1.1-1.2-1.3-1.7-2.1c-0.1-0.2-0.1-0.5,0.1-0.7l1-1c0.3-0.3,0.4-0.6,0.4-1c0-0.4-0.1-0.7-0.4-1l-2.2-2.2c-0.5-0.5-1.5-0.5-2,0  l-1.3,1.3c-1.4,1.4-1.6,3.6-0.5,5.3c1.3,1.9,2.2,3,3.6,4.4c1.4,1.4,2.7,2.5,4.6,3.8c0.7,0.5,1.5,0.7,2.4,0.7c1.1,0,2.2-0.4,2.9-1.2  l1.3-1.3c0.3-0.3,0.4-0.6,0.4-1C371.2,91.9,371.1,91.5,370.8,91.2z M361.1,83.5l-1,1c-0.6,0.6-0.7,1.5-0.3,2.2  c0.6,0.9,0.7,1.1,1.9,2.3c1.2,1.2,1.6,1.6,2.5,2.1c0.7,0.4,1.6,0.3,2.2-0.3l1-1c0.1-0.1,0.2-0.1,0.2,0l2.2,2.2c0,0,0,0.1,0,0.1  c0,0,0,0.1,0,0.1l-1.3,1.3c-1,1-2.6,1.1-3.7,0.3c-1.9-1.3-3.1-2.4-4.4-3.7c-1.3-1.3-2.2-2.4-3.5-4.3c-0.8-1.2-0.7-2.7,0.3-3.7  l1.3-1.3c0,0,0.1,0,0.1,0c0,0,0.1,0,0.1,0l2.2,2.2c0,0,0,0.1,0,0.1C361.2,83.4,361.2,83.5,361.1,83.5z"/>
<g>
	<path class="st22" d="M366,109.2c0-1.5-1.3-2.8-2.8-2.8s-2.8,1.2-2.8,2.8c0,1.5,1.3,2.8,2.8,2.8S366,110.8,366,109.2z M363.2,107.8   c0.8,0,1.4,0.6,1.4,1.4s-0.6,1.4-1.4,1.4s-1.4-0.6-1.4-1.4S362.5,107.8,363.2,107.8z"/>
	<path class="st22" d="M363.2,103.7c-3.5,0-6.3,2.8-6.3,6.2c0,3.7,3.8,9.5,5.2,11.2c0.3,0.3,0.7,0.5,1.1,0.5c0.4,0,0.8-0.2,1.1-0.5   c1.3-1.7,5.2-7.5,5.2-11.2C369.5,106.5,366.7,103.7,363.2,103.7z M357.6,109.9c0,2.4,1.8,5.9,3.4,8.5   C359.5,115.9,357.6,112.3,357.6,109.9z M358.3,109.9c0-2.7,2.2-4.8,4.9-4.8s4.9,2.2,4.9,4.8c0,3.1-3.3,8.3-4.9,10.4   C361.6,118.3,358.3,113,358.3,109.9z M362.8,120.8c0.1,0.1,0.3,0.2,0.5,0.2C363.1,121,362.9,120.9,362.8,120.8z M363.8,120.7   c0,0-0.1,0.1-0.1,0.1C363.7,120.8,363.8,120.8,363.8,120.7c1.2-1.5,3.3-4.8,4.4-7.7C367.1,115.9,365,119.2,363.8,120.7z"/>
</g>
</svg>