<?xml version="1.0" encoding="UTF-8"?>
<!-- Generator: Adobe Illustrator 24.0.0, SVG Export Plug-In . SVG Version: 6.00 Build 0)  -->
<svg version="1.1" id="Layer_1" xmlns="http://www.w3.org/2000/svg" xmlns:xlink="http://www.w3.org/1999/xlink" x="0px" y="0px" width="426px" height="58.7px" viewBox="0 0 426 58.7" style="enable-background:new 0 0 426 58.7;" xml:space="preserve">
<style type="text/css">
	.st0{fill:#522E75;}
	.st1{fill:#FFFFFF;}
</style>
<polygon class="st0" points="262.3,53.9 265.5,43.1 271,43.1 266.7,53.9 "/>
<g>
	<defs>
		<path id="SVGID_1_" d="M25.8,1.4L3.1,18c-2,1.4-3.1,3.7-3.1,6.1v27.1c0,3.9,2.9,7.1,6.7,7.5h47.1c3.8-0.4,6.7-3.6,6.7-7.5V24.1    c0-2.4-1.2-4.7-3.1-6.1L34.7,1.4c-1.3-1-2.9-1.4-4.5-1.4C28.7,0,27.1,0.5,25.8,1.4"/>
	</defs>
	<linearGradient id="SVGID_2_" gradientUnits="userSpaceOnUse" x1="6.7952" y1="14.1513" x2="53.7174" y2="61.0734">
		<stop offset="0" style="stop-color:#E99214"/>
		<stop offset="1" style="stop-color:#E26535"/>
	</linearGradient>
	<use xlink:href="#SVGID_1_" style="overflow:visible;fill:url(#SVGID_2_);"/>
	<clipPath id="SVGID_3_">
		<use xlink:href="#SVGID_1_" style="overflow:visible;"/>
	</clipPath>
</g>
<path class="st0" d="M420.2,43.6h5.6v5.4h-5.6V43.6z M420.4,39.6L420,16.4h6l-0.5,23.3H420.4z"/>
<path class="st0" d="M95.5,49.1V21.5h-3v-5.1h25.8c2.2,0,3.1,1,3.1,3.1V43c0,0.7,0.3,1,1,1h2v5.1h-5.9c-2.2,0-3.1-0.9-3.1-3.1V22.5  c0-0.7-0.3-1-1-1h-12.9v27.6H95.5z"/>
<path class="st0" d="M137.7,42.6c1.1,1.4,2.5,2.1,4.3,2.1c3.4,0,5.9-2.8,5.9-7.3c0-4.4-2.3-7.4-5.8-7.4c-3.4,0-5.9,2.5-5.9,7.4  C136.2,39.5,136.7,41.2,137.7,42.6 M130.6,58.3V31.6c0-0.7-0.3-1-1-1h-1.8v-5h5.2c2,0,2.9,0.7,2.9,2.3v0.9h0.1  c0.1-0.2,0.2-0.4,1.1-1.3c1.1-1.2,3.1-2.3,6.4-2.4c3.2,0,5.7,1.2,7.6,3.4c1.9,2.3,2.9,5.2,2.9,8.9c0,3.7-1,6.7-3,8.9  c-2,2.3-4.6,3.4-7.7,3.4c-3.6,0-5.9-1.9-6.5-2.8l-0.2-0.3h-0.1c0,0.6,0.1,1.2,0.1,2v9.7H130.6z"/>
<path class="st0" d="M160,49.1V31.6c0-0.7-0.3-1-1-1h-1.8v-5h5.2c2.2,0,3.1,0.9,3.1,3.1v9.6c0,1.2,0,2.2-0.1,2.9h0.1  c0.2-0.5,0.8-1.4,1.8-2.9l8.7-12.7h5.8v17.5c0,0.7,0.3,1,1,1h1.8v4.9h-5.2c-2.2,0-3.1-0.9-3.1-3.1v-9.6c0-0.8,0-1.8,0.1-2.9h-0.1  c-0.1,0.2-0.7,1.2-1.8,2.9l-8.7,12.7H160z"/>
<path class="st0" d="M196.9,44.3c0,0.6,0.3,0.8,0.8,0.8h3.4c2.5,0,3.8-1.2,3.8-3.2c0-2-1.4-3.1-3.8-3.1h-4.2V44.3z M196.9,35.2h3.8  c2.1,0,3.3-1.2,3.3-2.9c0-1.8-1.2-2.8-3.4-2.8h-3.6V35.2z M191,30.6h-2.9v-5h13.7c4.8,0,7.9,2.2,7.9,6.1c0,2.4-1.2,4.3-3,5.1v0.1  c2.6,0.7,4.1,2.9,4.1,5.4c0,4.5-3.5,6.8-8.7,6.8h-8.6c-1.8,0-2.5-0.8-2.5-2.5V30.6z"/>
<path class="st0" d="M232,34.7c0-3.2-2-5.2-4.7-5.2c-2.9,0-5.1,2-5.7,5.2H232z M218.8,28.5c2.3-2.3,5.1-3.5,8.7-3.5  c3.3,0,5.8,1.1,7.6,3.2c1.8,2.1,2.8,4.7,2.8,8c0,0.5,0,1.2-0.2,2h-16.2c0.4,4.1,3.4,6.4,7.1,6.4c2.3,0,4.6-0.9,6.7-2.6l2.3,4.2  c-2.3,2.1-6,3.4-9.4,3.4c-3.8,0-6.8-1.2-9.2-3.5c-2.3-2.4-3.5-5.3-3.5-8.7C215.4,33.7,216.5,30.8,218.8,28.5"/>
<path class="st0" d="M249,49.1V30.6h-3.2c-0.7,0-1,0.3-1,1v1.3H240v-4.2c0-2.2,0.9-3.1,3.1-3.1h17.5c2.2,0,3.1,0.9,3.1,3.1v4.2H259  v-1.3c0-0.7-0.3-1-1-1h-3.1v18.5H249z"/>
<path class="st0" d="M284.9,28.6c2.3-2.4,5.4-3.6,9.3-3.6c1.2,0,2.4,0.1,3.6,0.5c1.2,0.3,2.3,0.8,3.4,1.7c1.1,0.8,1.6,1.9,1.6,3.1  v2.8h-5.1v-1.3c0-1.2-1.8-1.8-3.4-1.8c-2,0-3.7,0.7-5,2.1c-1.3,1.4-1.9,3.1-1.9,5.2c0,2.3,0.7,4.1,2.1,5.3c1.4,1.2,3.2,1.9,5.2,1.9  c3.1,0,5.8-2,6.6-2.9l0.3-0.3l2.4,4.1c-0.2,0.2-0.4,0.5-1.7,1.5c-0.6,0.5-1.3,0.9-2,1.3c-1.4,0.7-3.8,1.5-6.2,1.5  c-3.8,0-6.9-1.2-9.3-3.5c-2.3-2.3-3.5-5.3-3.5-8.8C281.4,33.9,282.5,31,284.9,28.6"/>
<path class="st0" d="M314.9,42.6c1.3,1.3,3,2,5,2c1.9,0,3.6-0.7,4.9-2c1.3-1.4,2-3.1,2-5.3c0-2.1-0.7-3.9-2-5.2  c-1.3-1.4-3-2.1-4.9-2.1c-1.9,0-3.6,0.7-5,2.1c-1.3,1.4-2,3.1-2,5.2C312.9,39.5,313.6,41.2,314.9,42.6 M310.7,46.2  c-2.4-2.3-3.7-5.3-3.7-8.8c0-3.5,1.2-6.5,3.7-8.8c2.5-2.3,5.5-3.5,9.2-3.5c3.6,0,6.7,1.2,9.2,3.5c2.5,2.3,3.7,5.2,3.7,8.8  c0,3.5-1.2,6.5-3.7,8.8c-2.4,2.3-5.5,3.5-9.1,3.5C316.2,49.6,313.2,48.5,310.7,46.2"/>
<path class="st0" d="M338.9,28.6c2.3-2.4,5.4-3.6,9.3-3.6c1.2,0,2.4,0.1,3.6,0.5c1.2,0.3,2.3,0.8,3.4,1.7c1.1,0.8,1.6,1.9,1.6,3.1  v2.8h-5.1v-1.3c0-1.2-1.8-1.8-3.4-1.8c-2,0-3.7,0.7-5,2.1c-1.3,1.4-1.9,3.1-1.9,5.2c0,2.3,0.7,4.1,2.1,5.3c1.4,1.2,3.2,1.9,5.2,1.9  c3.1,0,5.8-2,6.6-2.9l0.3-0.3l2.4,4.1c-0.2,0.2-0.4,0.5-1.7,1.5c-0.6,0.5-1.3,0.9-2,1.3c-1.4,0.7-3.8,1.5-6.2,1.5  c-3.8,0-6.9-1.2-9.3-3.5c-2.3-2.3-3.5-5.3-3.5-8.8C335.4,33.9,336.6,31,338.9,28.6"/>
<path class="st0" d="M377.3,34.7c0-3.2-2-5.2-4.7-5.2c-2.9,0-5.1,2-5.7,5.2H377.3z M364.1,28.5c2.3-2.3,5.1-3.5,8.7-3.5  c3.3,0,5.8,1.1,7.6,3.2c1.8,2.1,2.8,4.7,2.8,8c0,0.5,0,1.2-0.2,2h-16.2c0.4,4.1,3.4,6.4,7.1,6.4c2.3,0,4.6-0.9,6.7-2.6l2.3,4.2  c-2.3,2.1-6,3.4-9.4,3.4c-3.8,0-6.8-1.2-9.2-3.5c-2.3-2.4-3.5-5.3-3.5-8.7C360.8,33.7,361.9,30.8,364.1,28.5"/>
<path class="st0" d="M403.8,44.3V31.6c0-0.7-0.3-1-1-1h-4.6v0.8c0,6-1.1,10.4-3.2,12.9H403.8z M386,47.4c0-2.2,0.9-3.1,2.9-3.1h0.4  c2.3-2.6,3.4-6.9,3.4-12.9v-0.8h-2.7v-5h16.7c2.2,0,3.1,1,3.1,3.1v15.6h0.6c2.1,0,2.9,0.9,2.9,3.1v7.2h-5.3v-4.5c0-0.7-0.3-1-0.9-1  h-14.7c-0.6,0-0.9,0.3-0.9,1v4.5H386V47.4z"/>
<path class="st1" d="M37.2,38c0.9,0,1.5,0.8,1.3,1.6c-0.8,3.9-4.2,6.8-8.3,6.8s-7.5-2.9-8.3-6.8c-0.2-0.8,0.5-1.6,1.3-1.6H37.2z"/>
<g>
	<ellipse transform="matrix(0.2298 -0.9732 0.9732 0.2298 -18.7553 36.9747)" class="st1" cx="14" cy="30.3" rx="3.2" ry="3.2"/>
	<ellipse transform="matrix(0.2298 -0.9732 0.9732 0.2298 6.4202 68.7853)" class="st1" cx="46.7" cy="30.3" rx="3.2" ry="3.2"/>
</g>
</svg>