<?xml version="1.0" encoding="utf-8"?>
<!-- Generator: Adobe Illustrator 24.0.0, SVG Export Plug-In . SVG Version: 6.00 Build 0)  -->
<svg version="1.1" id="Слой_1" xmlns="http://www.w3.org/2000/svg" xmlns:xlink="http://www.w3.org/1999/xlink" x="0px" y="0px"
	 width="103px" height="133.1px" viewBox="0 0 103 133.1" style="enable-background:new 0 0 103 133.1;" xml:space="preserve">
<style type="text/css">
	.st0{fill:url(#SVGID_1_);}
	.st1{fill:url(#SVGID_2_);}
</style>
<linearGradient id="SVGID_1_" gradientUnits="userSpaceOnUse" x1="48.7035" y1="94.8551" x2="84.1667" y2="15.446">
	<stop  offset="0" style="stop-color:#D14711"/>
	<stop  offset="0.498" style="stop-color:#BF2A09"/>
	<stop  offset="0.7566" style="stop-color:#BE3806"/>
	<stop  offset="1" style="stop-color:#BD4004"/>
</linearGradient>
<path class="st0" d="M51.4,0v22.3c0.1,0,0.2,0,0.3,0c15.6,0,28.2,12.6,28.2,28.2S67.3,78.7,51.7,78.7c-0.1,0-0.2,0-0.3,0v54.5
	c4.1,0,44.2-46.4,49.9-68.7c1.1-4.1,1.6-8.4,1.6-12.9C103,23.1,79.9,0,51.4,0z"/>
<linearGradient id="SVGID_2_" gradientUnits="userSpaceOnUse" x1="11.4012" y1="70.3124" x2="57.7664" y2="65.8479">
	<stop  offset="0" style="stop-color:#F28900"/>
	<stop  offset="0.2489" style="stop-color:#F48202"/>
	<stop  offset="0.6162" style="stop-color:#F86E06"/>
	<stop  offset="1" style="stop-color:#FF520D"/>
</linearGradient>
<path class="st1" d="M23.5,50.5c0-15.5,12.5-28.1,28-28.2V0C23.1,0,0,23.1,0,51.6c0,4.5,0.6,8.8,1.6,12.9
	c5.7,22.2,45.8,68.6,49.9,68.7V78.6C36.1,78.6,23.5,66,23.5,50.5z"/>
</svg>
